<?xml version="1.0" encoding="UTF-8" standalone="no"?>
<!DOCTYPE svg PUBLIC "-//W3C//DTD SVG 1.1//EN" "http://www.w3.org/Graphics/SVG/1.1/DTD/svg11.dtd">
<svg width="100%" height="100%" viewBox="0 0 1334 667" version="1.1" xmlns="http://www.w3.org/2000/svg" xmlns:xlink="http://www.w3.org/1999/xlink" xml:space="preserve" xmlns:serif="http://www.serif.com/" style="fill-rule:evenodd;clip-rule:evenodd;stroke-linejoin:round;stroke-miterlimit:2;">
    <g transform="matrix(1.33333,0,0,1.33333,0,0)">
        <g transform="matrix(1.31157,0,0,1.31157,-181.766,6.09208)">
            <g transform="matrix(325.667,0,0,325.667,139.103,266.243)">
                <path d="M0.156,0.017C0.133,0.018 0.112,0.015 0.091,0.009C0.071,0.004 0.055,-0.004 0.042,-0.015C0.027,-0.028 0.02,-0.044 0.02,-0.065C0.02,-0.079 0.024,-0.093 0.033,-0.107C0.042,-0.122 0.055,-0.129 0.072,-0.129C0.079,-0.129 0.086,-0.127 0.092,-0.124C0.098,-0.121 0.102,-0.116 0.104,-0.111C0.103,-0.11 0.102,-0.108 0.099,-0.104C0.096,-0.101 0.095,-0.098 0.094,-0.097C0.088,-0.085 0.085,-0.074 0.085,-0.064C0.085,-0.05 0.09,-0.039 0.1,-0.03C0.111,-0.021 0.124,-0.017 0.141,-0.017C0.163,-0.018 0.182,-0.025 0.198,-0.04C0.215,-0.055 0.223,-0.073 0.223,-0.094C0.223,-0.106 0.22,-0.117 0.215,-0.128C0.206,-0.146 0.195,-0.161 0.181,-0.174C0.167,-0.187 0.153,-0.201 0.14,-0.214C0.127,-0.227 0.118,-0.243 0.112,-0.262C0.109,-0.274 0.107,-0.285 0.107,-0.295C0.107,-0.308 0.109,-0.32 0.112,-0.332C0.116,-0.344 0.121,-0.354 0.127,-0.363C0.136,-0.376 0.15,-0.387 0.169,-0.398C0.192,-0.411 0.22,-0.417 0.251,-0.417C0.272,-0.417 0.29,-0.414 0.306,-0.409C0.318,-0.405 0.328,-0.398 0.337,-0.389C0.346,-0.38 0.351,-0.369 0.351,-0.354C0.351,-0.337 0.346,-0.321 0.335,-0.306C0.325,-0.291 0.31,-0.282 0.291,-0.279C0.279,-0.278 0.268,-0.28 0.259,-0.285C0.25,-0.291 0.246,-0.302 0.249,-0.318C0.267,-0.322 0.28,-0.329 0.288,-0.34C0.292,-0.346 0.294,-0.352 0.294,-0.358C0.294,-0.369 0.289,-0.377 0.28,-0.381C0.271,-0.386 0.263,-0.388 0.255,-0.388C0.245,-0.388 0.235,-0.387 0.226,-0.384C0.217,-0.382 0.209,-0.378 0.202,-0.373C0.187,-0.36 0.18,-0.346 0.18,-0.329C0.18,-0.326 0.18,-0.323 0.181,-0.32C0.182,-0.317 0.183,-0.313 0.184,-0.31C0.187,-0.301 0.192,-0.293 0.199,-0.286C0.206,-0.279 0.212,-0.272 0.219,-0.267C0.236,-0.255 0.253,-0.242 0.27,-0.228C0.288,-0.214 0.301,-0.197 0.31,-0.177C0.317,-0.163 0.32,-0.149 0.32,-0.134C0.32,-0.114 0.315,-0.096 0.305,-0.079C0.295,-0.063 0.284,-0.05 0.271,-0.041C0.291,-0.05 0.31,-0.064 0.329,-0.083C0.348,-0.102 0.365,-0.123 0.38,-0.145C0.395,-0.168 0.408,-0.187 0.418,-0.204C0.423,-0.212 0.427,-0.22 0.431,-0.229C0.436,-0.238 0.44,-0.246 0.445,-0.253C0.447,-0.258 0.449,-0.26 0.451,-0.26C0.454,-0.26 0.456,-0.255 0.456,-0.244C0.456,-0.238 0.455,-0.231 0.453,-0.224C0.452,-0.217 0.449,-0.21 0.445,-0.203C0.435,-0.186 0.424,-0.169 0.413,-0.15C0.402,-0.132 0.388,-0.113 0.373,-0.093C0.346,-0.056 0.314,-0.029 0.279,-0.012C0.244,0.005 0.203,0.015 0.156,0.017Z" style="fill-rule:nonzero;"/>
            </g>
            <g transform="matrix(325.667,0,0,325.667,139.103,266.243)">
            </g>
            <g transform="matrix(325.667,0,0,325.667,260.577,266.243)">
                <path d="M0.083,0.006C0.062,0.006 0.048,-0.002 0.039,-0.019C0.031,-0.036 0.027,-0.056 0.027,-0.08C0.027,-0.099 0.029,-0.119 0.033,-0.139C0.036,-0.157 0.042,-0.179 0.05,-0.204C0.059,-0.23 0.068,-0.257 0.079,-0.286C0.09,-0.315 0.1,-0.342 0.111,-0.368L0.064,-0.368C0.061,-0.368 0.06,-0.371 0.062,-0.376C0.064,-0.381 0.067,-0.386 0.071,-0.391C0.075,-0.396 0.078,-0.399 0.08,-0.399L0.125,-0.399C0.132,-0.416 0.141,-0.435 0.151,-0.455C0.162,-0.475 0.173,-0.494 0.186,-0.511C0.199,-0.529 0.213,-0.544 0.228,-0.555C0.243,-0.566 0.259,-0.572 0.276,-0.572L0.304,-0.572C0.315,-0.572 0.322,-0.572 0.325,-0.573C0.31,-0.564 0.294,-0.545 0.275,-0.517C0.257,-0.49 0.237,-0.45 0.214,-0.399L0.275,-0.399C0.277,-0.399 0.276,-0.396 0.273,-0.391C0.27,-0.386 0.265,-0.381 0.26,-0.376C0.255,-0.371 0.251,-0.368 0.246,-0.368L0.201,-0.368C0.192,-0.346 0.182,-0.322 0.171,-0.296C0.161,-0.27 0.152,-0.244 0.143,-0.219C0.135,-0.194 0.129,-0.172 0.125,-0.151C0.124,-0.144 0.123,-0.137 0.122,-0.13C0.121,-0.124 0.121,-0.118 0.121,-0.113C0.121,-0.089 0.128,-0.077 0.141,-0.077C0.15,-0.077 0.162,-0.082 0.175,-0.093C0.189,-0.104 0.203,-0.119 0.218,-0.138C0.232,-0.155 0.245,-0.174 0.256,-0.194C0.268,-0.214 0.278,-0.232 0.287,-0.249C0.29,-0.254 0.293,-0.257 0.294,-0.257C0.298,-0.257 0.3,-0.251 0.3,-0.24C0.3,-0.235 0.299,-0.228 0.297,-0.221C0.296,-0.214 0.293,-0.208 0.29,-0.202C0.281,-0.186 0.27,-0.168 0.257,-0.148C0.244,-0.129 0.231,-0.11 0.218,-0.092C0.209,-0.079 0.196,-0.065 0.181,-0.05C0.166,-0.035 0.15,-0.021 0.133,-0.01C0.116,0.001 0.099,0.006 0.083,0.006Z" style="fill-rule:nonzero;"/>
            </g>
            <g transform="matrix(325.667,0,0,325.667,260.577,266.243)">
            </g>
            <g transform="matrix(325.667,0,0,325.667,331.572,266.243)">
                <path d="M0.241,-0.487C0.234,-0.48 0.228,-0.477 0.223,-0.477C0.215,-0.477 0.211,-0.483 0.211,-0.495C0.211,-0.504 0.215,-0.517 0.224,-0.533C0.233,-0.55 0.243,-0.565 0.256,-0.579C0.269,-0.594 0.282,-0.603 0.294,-0.606C0.301,-0.608 0.307,-0.606 0.314,-0.599C0.321,-0.593 0.326,-0.585 0.33,-0.576C0.335,-0.567 0.337,-0.559 0.337,-0.552C0.337,-0.543 0.334,-0.539 0.329,-0.538C0.319,-0.535 0.308,-0.531 0.296,-0.524C0.284,-0.518 0.273,-0.511 0.263,-0.504C0.253,-0.497 0.246,-0.492 0.241,-0.487ZM0.081,0.006C0.072,0.006 0.064,0.004 0.056,-0C0.048,-0.003 0.041,-0.01 0.036,-0.021C0.029,-0.037 0.025,-0.056 0.025,-0.078C0.025,-0.102 0.029,-0.129 0.036,-0.158C0.043,-0.188 0.053,-0.219 0.065,-0.25C0.07,-0.261 0.076,-0.275 0.083,-0.292C0.09,-0.309 0.099,-0.325 0.109,-0.342C0.119,-0.359 0.13,-0.372 0.143,-0.383C0.156,-0.394 0.171,-0.4 0.186,-0.4C0.193,-0.4 0.204,-0.4 0.217,-0.399C0.23,-0.398 0.24,-0.398 0.246,-0.399C0.242,-0.396 0.237,-0.391 0.232,-0.383C0.227,-0.375 0.222,-0.367 0.217,-0.358C0.212,-0.35 0.209,-0.344 0.206,-0.339C0.189,-0.304 0.172,-0.27 0.157,-0.236C0.142,-0.202 0.13,-0.169 0.122,-0.138C0.121,-0.133 0.12,-0.127 0.119,-0.122C0.118,-0.117 0.118,-0.112 0.118,-0.107C0.118,-0.088 0.124,-0.078 0.137,-0.078C0.142,-0.078 0.148,-0.079 0.154,-0.082C0.161,-0.085 0.168,-0.09 0.177,-0.097C0.192,-0.109 0.206,-0.123 0.217,-0.138C0.23,-0.155 0.243,-0.174 0.255,-0.194C0.267,-0.214 0.277,-0.232 0.286,-0.249C0.289,-0.254 0.292,-0.257 0.293,-0.257C0.297,-0.257 0.299,-0.251 0.299,-0.24C0.299,-0.235 0.298,-0.228 0.296,-0.221C0.295,-0.214 0.292,-0.208 0.289,-0.202C0.28,-0.186 0.269,-0.168 0.256,-0.148C0.243,-0.129 0.23,-0.11 0.217,-0.092C0.208,-0.079 0.195,-0.065 0.18,-0.05C0.165,-0.035 0.148,-0.021 0.131,-0.01C0.114,0.001 0.097,0.006 0.081,0.006Z" style="fill-rule:nonzero;"/>
            </g>
            <g transform="matrix(325.667,0,0,325.667,331.572,266.243)">
            </g>
            <g transform="matrix(325.667,0,0,325.667,402.242,266.243)">
                <path d="M0.087,0.006C0.068,0.006 0.054,-0.001 0.045,-0.014C0.036,-0.028 0.031,-0.047 0.031,-0.07L0.031,-0.08C0.031,-0.083 0.031,-0.087 0.032,-0.09C0.035,-0.115 0.041,-0.144 0.049,-0.176C0.058,-0.208 0.068,-0.242 0.079,-0.277C0.086,-0.297 0.094,-0.322 0.104,-0.352C0.115,-0.383 0.127,-0.415 0.141,-0.45C0.155,-0.485 0.17,-0.52 0.187,-0.555C0.204,-0.59 0.223,-0.621 0.244,-0.649C0.265,-0.678 0.286,-0.701 0.309,-0.718C0.332,-0.735 0.357,-0.744 0.383,-0.744C0.403,-0.744 0.417,-0.739 0.424,-0.73C0.431,-0.721 0.435,-0.71 0.435,-0.697C0.435,-0.682 0.432,-0.667 0.426,-0.651C0.42,-0.635 0.414,-0.621 0.408,-0.61C0.396,-0.586 0.38,-0.559 0.361,-0.529C0.342,-0.499 0.321,-0.471 0.3,-0.445C0.287,-0.428 0.272,-0.41 0.253,-0.389C0.234,-0.368 0.217,-0.349 0.2,-0.332C0.184,-0.315 0.172,-0.303 0.165,-0.296L0.149,-0.25C0.144,-0.237 0.14,-0.222 0.135,-0.205C0.131,-0.188 0.127,-0.17 0.124,-0.153C0.121,-0.136 0.119,-0.122 0.117,-0.109C0.116,-0.106 0.116,-0.104 0.116,-0.101L0.116,-0.094C0.116,-0.074 0.124,-0.064 0.139,-0.064C0.148,-0.064 0.16,-0.068 0.174,-0.077C0.187,-0.085 0.2,-0.095 0.212,-0.108C0.225,-0.121 0.234,-0.131 0.239,-0.138C0.252,-0.155 0.265,-0.174 0.277,-0.194C0.289,-0.214 0.299,-0.232 0.308,-0.249C0.311,-0.254 0.314,-0.257 0.315,-0.257C0.319,-0.257 0.321,-0.251 0.321,-0.24C0.321,-0.235 0.32,-0.228 0.318,-0.221C0.317,-0.214 0.314,-0.208 0.311,-0.202C0.302,-0.186 0.291,-0.168 0.278,-0.148C0.265,-0.129 0.252,-0.11 0.239,-0.092C0.229,-0.079 0.216,-0.064 0.199,-0.049C0.182,-0.034 0.164,-0.021 0.144,-0.01C0.125,0.001 0.106,0.006 0.087,0.006ZM0.185,-0.353C0.218,-0.392 0.252,-0.434 0.286,-0.479C0.321,-0.524 0.349,-0.57 0.372,-0.617C0.373,-0.62 0.376,-0.627 0.381,-0.637C0.386,-0.647 0.39,-0.658 0.394,-0.67C0.398,-0.683 0.4,-0.693 0.4,-0.702C0.4,-0.713 0.396,-0.719 0.387,-0.719C0.378,-0.719 0.368,-0.713 0.356,-0.701C0.345,-0.689 0.333,-0.673 0.321,-0.653C0.306,-0.628 0.29,-0.598 0.274,-0.565C0.258,-0.532 0.242,-0.498 0.227,-0.461C0.212,-0.424 0.198,-0.388 0.185,-0.353Z" style="fill-rule:nonzero;"/>
            </g>
            <g transform="matrix(325.667,0,0,325.667,402.242,266.243)">
            </g>
            <g transform="matrix(325.667,0,0,325.667,480.076,266.243)">
                <path d="M0.087,0.006C0.068,0.006 0.054,-0.001 0.045,-0.014C0.036,-0.028 0.031,-0.047 0.031,-0.07L0.031,-0.08C0.031,-0.083 0.031,-0.087 0.032,-0.09C0.035,-0.115 0.041,-0.144 0.049,-0.176C0.058,-0.208 0.068,-0.242 0.079,-0.277C0.086,-0.297 0.094,-0.322 0.104,-0.352C0.115,-0.383 0.127,-0.415 0.141,-0.45C0.155,-0.485 0.17,-0.52 0.187,-0.555C0.204,-0.59 0.223,-0.621 0.244,-0.649C0.265,-0.678 0.286,-0.701 0.309,-0.718C0.332,-0.735 0.357,-0.744 0.383,-0.744C0.403,-0.744 0.417,-0.739 0.424,-0.73C0.431,-0.721 0.435,-0.71 0.435,-0.697C0.435,-0.682 0.432,-0.667 0.426,-0.651C0.42,-0.635 0.414,-0.621 0.408,-0.61C0.396,-0.586 0.38,-0.559 0.361,-0.529C0.342,-0.499 0.321,-0.471 0.3,-0.445C0.287,-0.428 0.272,-0.41 0.253,-0.389C0.234,-0.368 0.217,-0.349 0.2,-0.332C0.184,-0.315 0.172,-0.303 0.165,-0.296L0.149,-0.25C0.144,-0.237 0.14,-0.222 0.135,-0.205C0.131,-0.188 0.127,-0.17 0.124,-0.153C0.121,-0.136 0.119,-0.122 0.117,-0.109C0.116,-0.106 0.116,-0.104 0.116,-0.101L0.116,-0.094C0.116,-0.074 0.124,-0.064 0.139,-0.064C0.148,-0.064 0.16,-0.068 0.174,-0.077C0.187,-0.085 0.2,-0.095 0.212,-0.108C0.225,-0.121 0.234,-0.131 0.239,-0.138C0.252,-0.155 0.265,-0.174 0.277,-0.194C0.289,-0.214 0.299,-0.232 0.308,-0.249C0.311,-0.254 0.314,-0.257 0.315,-0.257C0.319,-0.257 0.321,-0.251 0.321,-0.24C0.321,-0.235 0.32,-0.228 0.318,-0.221C0.317,-0.214 0.314,-0.208 0.311,-0.202C0.302,-0.186 0.291,-0.168 0.278,-0.148C0.265,-0.129 0.252,-0.11 0.239,-0.092C0.229,-0.079 0.216,-0.064 0.199,-0.049C0.182,-0.034 0.164,-0.021 0.144,-0.01C0.125,0.001 0.106,0.006 0.087,0.006ZM0.185,-0.353C0.218,-0.392 0.252,-0.434 0.286,-0.479C0.321,-0.524 0.349,-0.57 0.372,-0.617C0.373,-0.62 0.376,-0.627 0.381,-0.637C0.386,-0.647 0.39,-0.658 0.394,-0.67C0.398,-0.683 0.4,-0.693 0.4,-0.702C0.4,-0.713 0.396,-0.719 0.387,-0.719C0.378,-0.719 0.368,-0.713 0.356,-0.701C0.345,-0.689 0.333,-0.673 0.321,-0.653C0.306,-0.628 0.29,-0.598 0.274,-0.565C0.258,-0.532 0.242,-0.498 0.227,-0.461C0.212,-0.424 0.198,-0.388 0.185,-0.353Z" style="fill-rule:nonzero;"/>
            </g>
            <g transform="matrix(325.667,0,0,325.667,480.076,266.243)">
            </g>
            <g transform="matrix(325.667,0,0,325.667,557.91,266.243)">
                <path d="M0.302,0.006C0.279,0.006 0.264,-0.001 0.255,-0.014C0.247,-0.028 0.243,-0.044 0.243,-0.062C0.243,-0.081 0.246,-0.104 0.252,-0.129C0.259,-0.155 0.267,-0.182 0.276,-0.209C0.286,-0.237 0.296,-0.263 0.306,-0.287C0.309,-0.295 0.312,-0.304 0.315,-0.313C0.318,-0.322 0.32,-0.331 0.32,-0.338C0.32,-0.351 0.314,-0.358 0.302,-0.358C0.297,-0.358 0.292,-0.357 0.286,-0.355C0.28,-0.354 0.273,-0.351 0.265,-0.346C0.251,-0.339 0.238,-0.33 0.225,-0.318C0.212,-0.307 0.204,-0.298 0.199,-0.292C0.19,-0.281 0.182,-0.269 0.174,-0.256C0.166,-0.243 0.159,-0.23 0.153,-0.217C0.14,-0.188 0.129,-0.161 0.121,-0.135C0.114,-0.11 0.107,-0.088 0.1,-0.07C0.096,-0.059 0.092,-0.047 0.088,-0.035C0.084,-0.023 0.08,-0.011 0.077,-0L-0.02,-0C-0.02,-0 -0.018,-0.008 -0.013,-0.025C-0.008,-0.042 -0.003,-0.058 0.004,-0.075C0.035,-0.154 0.064,-0.235 0.091,-0.318C0.118,-0.401 0.151,-0.48 0.19,-0.556C0.207,-0.59 0.226,-0.621 0.246,-0.65C0.267,-0.679 0.288,-0.701 0.311,-0.718C0.334,-0.735 0.359,-0.744 0.384,-0.744C0.404,-0.744 0.418,-0.739 0.425,-0.73C0.433,-0.721 0.437,-0.71 0.437,-0.697C0.437,-0.682 0.434,-0.667 0.428,-0.651C0.422,-0.635 0.416,-0.621 0.41,-0.61C0.398,-0.586 0.382,-0.559 0.363,-0.529C0.344,-0.499 0.323,-0.471 0.302,-0.445C0.297,-0.439 0.289,-0.429 0.278,-0.416C0.267,-0.403 0.255,-0.39 0.243,-0.377C0.232,-0.364 0.223,-0.353 0.216,-0.346C0.238,-0.362 0.257,-0.374 0.273,-0.383C0.289,-0.392 0.303,-0.398 0.314,-0.401C0.333,-0.406 0.349,-0.409 0.362,-0.409C0.4,-0.409 0.419,-0.392 0.419,-0.359C0.419,-0.345 0.415,-0.328 0.407,-0.309C0.403,-0.298 0.397,-0.284 0.39,-0.266C0.383,-0.248 0.375,-0.229 0.367,-0.208C0.36,-0.188 0.353,-0.169 0.348,-0.15C0.343,-0.131 0.341,-0.116 0.341,-0.104C0.341,-0.097 0.342,-0.09 0.344,-0.084C0.347,-0.079 0.351,-0.076 0.358,-0.076C0.363,-0.076 0.369,-0.078 0.378,-0.083C0.39,-0.09 0.402,-0.1 0.414,-0.112C0.426,-0.124 0.434,-0.133 0.438,-0.138C0.452,-0.155 0.465,-0.174 0.476,-0.194C0.488,-0.214 0.498,-0.232 0.507,-0.249C0.51,-0.254 0.513,-0.257 0.514,-0.257C0.518,-0.257 0.52,-0.251 0.52,-0.24C0.52,-0.235 0.519,-0.228 0.517,-0.221C0.516,-0.214 0.513,-0.208 0.51,-0.202C0.501,-0.186 0.49,-0.168 0.477,-0.148C0.464,-0.129 0.451,-0.11 0.438,-0.092C0.429,-0.079 0.416,-0.065 0.401,-0.05C0.386,-0.035 0.369,-0.021 0.352,-0.01C0.335,0.001 0.318,0.006 0.302,0.006ZM0.187,-0.353C0.22,-0.392 0.254,-0.434 0.288,-0.479C0.323,-0.524 0.351,-0.57 0.374,-0.617C0.375,-0.62 0.378,-0.627 0.383,-0.637C0.388,-0.647 0.392,-0.658 0.396,-0.67C0.4,-0.683 0.402,-0.693 0.402,-0.702C0.402,-0.713 0.398,-0.719 0.389,-0.719C0.38,-0.719 0.37,-0.713 0.358,-0.701C0.347,-0.689 0.335,-0.673 0.323,-0.653C0.308,-0.628 0.292,-0.598 0.276,-0.565C0.26,-0.532 0.244,-0.498 0.229,-0.461C0.214,-0.424 0.2,-0.388 0.187,-0.353Z" style="fill-rule:nonzero;"/>
            </g>
            <g transform="matrix(325.667,0,0,325.667,557.91,266.243)">
            </g>
            <g transform="matrix(325.667,0,0,325.667,700.552,266.243)">
                <path d="M0.283,0.251C0.264,0.251 0.25,0.246 0.239,0.235C0.229,0.224 0.222,0.211 0.218,0.194C0.214,0.177 0.212,0.16 0.212,0.143C0.212,0.123 0.214,0.105 0.217,0.088C0.222,0.055 0.23,0.022 0.241,-0.013C0.252,-0.048 0.264,-0.082 0.276,-0.114C0.289,-0.147 0.299,-0.175 0.308,-0.198C0.297,-0.178 0.285,-0.158 0.272,-0.139C0.26,-0.12 0.248,-0.102 0.235,-0.087C0.214,-0.062 0.192,-0.04 0.167,-0.023C0.143,-0.006 0.119,0.003 0.096,0.003C0.077,0.003 0.06,-0.004 0.047,-0.017C0.034,-0.031 0.028,-0.055 0.028,-0.089C0.028,-0.124 0.034,-0.159 0.046,-0.196C0.058,-0.233 0.075,-0.268 0.096,-0.3C0.118,-0.332 0.144,-0.358 0.174,-0.377C0.204,-0.397 0.237,-0.407 0.273,-0.407C0.284,-0.407 0.297,-0.405 0.31,-0.401C0.324,-0.398 0.337,-0.391 0.348,-0.382C0.359,-0.373 0.367,-0.361 0.371,-0.345C0.372,-0.346 0.373,-0.348 0.376,-0.351C0.387,-0.366 0.401,-0.379 0.416,-0.389C0.431,-0.399 0.449,-0.404 0.469,-0.404L0.501,-0.404C0.492,-0.404 0.481,-0.394 0.468,-0.375C0.455,-0.356 0.44,-0.331 0.425,-0.301C0.41,-0.271 0.396,-0.24 0.381,-0.207C0.367,-0.175 0.355,-0.146 0.345,-0.12C0.36,-0.117 0.373,-0.109 0.382,-0.096C0.392,-0.083 0.4,-0.066 0.405,-0.047C0.425,-0.055 0.444,-0.067 0.461,-0.083C0.479,-0.1 0.495,-0.118 0.51,-0.137C0.525,-0.156 0.537,-0.176 0.548,-0.195C0.559,-0.214 0.569,-0.232 0.578,-0.249C0.581,-0.254 0.584,-0.257 0.586,-0.257C0.589,-0.257 0.591,-0.255 0.592,-0.251C0.593,-0.247 0.594,-0.242 0.594,-0.237C0.594,-0.232 0.593,-0.226 0.592,-0.22C0.591,-0.214 0.588,-0.208 0.585,-0.203C0.574,-0.185 0.562,-0.165 0.547,-0.144C0.533,-0.123 0.521,-0.106 0.51,-0.093C0.497,-0.077 0.482,-0.062 0.466,-0.049C0.451,-0.036 0.434,-0.025 0.415,-0.017C0.416,-0.014 0.416,-0.01 0.416,-0.005L0.416,0.007C0.416,0.024 0.415,0.042 0.412,0.063C0.409,0.084 0.405,0.104 0.4,0.124C0.391,0.157 0.376,0.187 0.357,0.212C0.338,0.238 0.313,0.251 0.283,0.251ZM0.14,-0.081C0.142,-0.08 0.145,-0.08 0.149,-0.08C0.162,-0.08 0.175,-0.085 0.19,-0.096C0.205,-0.107 0.219,-0.121 0.234,-0.138C0.249,-0.155 0.263,-0.173 0.274,-0.19C0.303,-0.236 0.325,-0.271 0.339,-0.294C0.354,-0.318 0.362,-0.332 0.365,-0.337C0.362,-0.348 0.356,-0.356 0.347,-0.361C0.339,-0.366 0.329,-0.369 0.318,-0.369C0.303,-0.369 0.288,-0.365 0.271,-0.357C0.254,-0.35 0.24,-0.34 0.229,-0.328C0.212,-0.311 0.195,-0.288 0.179,-0.26C0.163,-0.233 0.15,-0.205 0.14,-0.178C0.131,-0.151 0.126,-0.128 0.126,-0.11C0.126,-0.093 0.131,-0.084 0.14,-0.081ZM0.323,0.206C0.33,0.198 0.337,0.188 0.344,0.176C0.351,0.165 0.356,0.152 0.361,0.137C0.368,0.118 0.373,0.099 0.376,0.079C0.38,0.059 0.382,0.04 0.382,0.022C0.382,0.009 0.381,-0.002 0.379,-0.012C0.364,-0.013 0.352,-0.018 0.343,-0.029C0.334,-0.04 0.328,-0.052 0.323,-0.063C0.318,-0.049 0.312,-0.031 0.305,-0.009C0.298,0.012 0.291,0.035 0.284,0.059C0.278,0.083 0.273,0.106 0.269,0.128C0.265,0.151 0.263,0.17 0.264,0.186C0.265,0.198 0.268,0.207 0.273,0.213C0.278,0.219 0.285,0.222 0.292,0.222C0.303,0.222 0.313,0.217 0.323,0.206Z" style="fill-rule:nonzero;"/>
            </g>
            <g transform="matrix(325.667,0,0,325.667,700.552,266.243)">
            </g>
            <g transform="matrix(325.667,0,0,325.667,866.642,266.243)">
            </g>
        </g>
    </g>
</svg>
